<svg xmlns="http://www.w3.org/2000/svg" viewBox="0 0 32 32" aria-hidden="true">
  <!-- ┴× ìx0 -->
  <path d="M16 1.5 L20.5 9.5 H11.5 Z" fill="#E96A5D" stroke="#4D516D" stroke-width="1.1" stroke-linejoin="round"/>
  <!-- e LP¼ -->
  <circle cx="16" cy="17.5" r="12" fill="#4D516D"/>
  <!-- 4±ä ­ (ì 16,17.5) -->
  <g transform="translate(16 17.5)">
    <path d="M0 0 L0 -10.2 A 10.2 10.2 0 0 1 10.2 0 Z" fill="#6FBAB7"/>
    <path d="M0 0 L10.2 0 A 10.2 10.2 0 0 1 0 10.2 Z" fill="#E96A5D"/>
    <path d="M0 0 L0 10.2 A 10.2 10.2 0 0 1 -10.2 0 Z" fill="#F7D774"/>
    <path d="M0 0 L-10.2 0 A 10.2 10.2 0 0 1 0 -10.2 Z" fill="#4D516D"/>
  </g>
  <!-- ╝  p @(4) -->
  <circle cx="16" cy="7.5" r="1.2" fill="#fff"/>
  <circle cx="25.2" cy="17.5" r="1.2" fill="#fff"/>
  <circle cx="16" cy="27.5" r="1.2" fill="#fff"/>
  <circle cx="6.8" cy="17.5" r="1.2" fill="#fff"/>
  <!-- Y ╚ -->
  <circle cx="16" cy="17.5" r="3.2" fill="#fff" stroke="#4D516D" stroke-width="1"/>
</svg>
